<svg fill="none" height="41" viewBox="0 0 30 41" width="30" xmlns="http://www.w3.org/2000/svg"><path d="m30 5c0-2.77344-2.2266-5-5-5s-5 2.22656-5 5c0 1.83594 1.0156 3.47656 2.5 4.33594v4.14066l-7.5 8.2812-7.5-8.2812v-4.14066c1.48438-.85938 2.5-2.46094 2.5-4.33594 0-2.77344-2.22656-5-5-5s-5 2.22656-5 5c0 1.83594 1.01562 3.47656 2.5 4.33594v6.09376l10 11.0156v4.2578c-1.4844.8594-2.5 2.461-2.5 4.336 0 2.7734 2.2266 5 5 5s5-2.2266 5-5c0-1.836-1.0156-3.4766-2.5-4.336v-4.2578l10-11.0156v-6.09376c1.4844-.85938 2.5-2.46094 2.5-4.33594zm-25-2.46094c1.32812 0 2.42188 1.09375 2.42188 2.42188 0 1.32812-1.09376 2.42187-2.42188 2.42187s-2.42188-1.09375-2.42188-2.42187c0-1.32813 1.09376-2.42188 2.42188-2.42188zm10 34.80474c-1.3281 0-2.4219-1.0938-2.4219-2.4219s1.0938-2.4219 2.4219-2.4219 2.4219 1.0938 2.4219 2.4219-1.0938 2.4219-2.4219 2.4219zm10-34.80474c1.3281 0 2.4219 1.09375 2.4219 2.42188 0 1.32812-1.0938 2.42187-2.4219 2.42187s-2.4219-1.09375-2.4219-2.42187c0-1.32813 1.0938-2.42188 2.4219-2.42188z" fill="#000"/></svg>