<svg fill="none" height="30" viewBox="0 0 48 30" width="48" xmlns="http://www.w3.org/2000/svg"><path d="m24 0c-10.4719 0-19.52812 6.1125-24 15 4.47188 8.8875 13.5281 15 24 15s19.5281-6.1125 24-15c-4.4719-8.8875-13.5281-15-24-15zm11.8406 7.95937c2.8406 1.8 5.2406 4.20003 6.9844 7.04063-1.8 2.8406-4.2 5.2406-6.9844 7.0406-3.5437 2.2407-7.6406 3.4406-11.8406 3.4406s-8.2875-1.1999-11.8406-3.4406c-2.84065-1.8-5.24065-4.2-6.9844-7.0406 1.8-2.8406 4.2-5.24063 6.9844-7.04063l.5437-.32812c-.4406 1.25625-.7125 2.61565-.7125 4.08755 0 6.6 5.4 12 12 12s12-5.4 12-12c0-1.4157-.2719-2.84068-.7125-4.08755zm-11.8406 2.56873c0 2.5125-2.0156 4.5282-4.5281 4.5282s-4.5282-2.0157-4.5282-4.5282c0-2.51247 2.0157-4.5281 4.5282-4.5281s4.5281 2.01563 4.5281 4.5281z" fill="#000"/></svg>